G04 #@! TF.GenerationSoftware,KiCad,Pcbnew,5.0.0-fee4fd1~66~ubuntu18.04.1*
G04 #@! TF.CreationDate,2018-09-21T23:05:29+02:00*
G04 #@! TF.ProjectId,Top,546F702E6B696361645F706362000000,rev?*
G04 #@! TF.SameCoordinates,Original*
G04 #@! TF.FileFunction,Paste,Bot*
G04 #@! TF.FilePolarity,Positive*
%FSLAX46Y46*%
G04 Gerber Fmt 4.6, Leading zero omitted, Abs format (unit mm)*
G04 Created by KiCad (PCBNEW 5.0.0-fee4fd1~66~ubuntu18.04.1) date Fri Sep 21 23:05:29 2018*
%MOMM*%
%LPD*%
G01*
G04 APERTURE LIST*
%ADD10C,0.200000*%
%ADD11R,2.510000X1.000000*%
G04 APERTURE END LIST*
D10*
X228290000Y-142240000D02*
G75*
G03X228290000Y-142240000I-3500000J0D01*
G01*
X200350000Y-142240000D02*
G75*
G03X200350000Y-142240000I-3500000J0D01*
G01*
X102870000Y-81280000D02*
X102870000Y-146280000D01*
X105410000Y-146280000D02*
X105410000Y-81280000D01*
X118110000Y-81280000D02*
X118110000Y-146280000D01*
X120650000Y-81280000D02*
X120650000Y-146280000D01*
X99060000Y-73660000D02*
X124460000Y-73660000D01*
X99060000Y-76200000D02*
X99060000Y-73660000D01*
X124460000Y-76200000D02*
X99060000Y-76200000D01*
X124460000Y-73660000D02*
X124460000Y-76200000D01*
X142152000Y-90170000D02*
G75*
G03X142152000Y-90170000I-5500000J0D01*
G01*
X170632000Y-142240000D02*
G75*
G03X170632000Y-142240000I-3500000J0D01*
G01*
X170632000Y-127000000D02*
G75*
G03X170632000Y-127000000I-3500000J0D01*
G01*
X155392000Y-127000000D02*
G75*
G03X155392000Y-127000000I-3500000J0D01*
G01*
X155392000Y-142240000D02*
G75*
G03X155392000Y-142240000I-3500000J0D01*
G01*
X140152000Y-142240000D02*
G75*
G03X140152000Y-142240000I-3500000J0D01*
G01*
X140152000Y-127000000D02*
G75*
G03X140152000Y-127000000I-3500000J0D01*
G01*
X102870000Y-81280000D02*
X105410000Y-81280000D01*
X120650000Y-81280000D02*
X118110000Y-81280000D01*
X105410000Y-146280000D02*
X102870000Y-146280000D01*
X118110000Y-146280000D02*
X120650000Y-146280000D01*
X232820000Y-97790000D02*
G75*
G03X232820000Y-97790000I-22000000J0D01*
G01*
X88900000Y-64300000D02*
X88900000Y-155500000D01*
X245000000Y-64262000D02*
X88900000Y-64262000D01*
X245000000Y-155500000D02*
X245000000Y-64300000D01*
X88900000Y-155500000D02*
X245000000Y-155500000D01*
D11*
G04 #@! TO.C,J2*
X179390000Y-114320000D03*
X179390000Y-109240000D03*
X179390000Y-104160000D03*
X179390000Y-99080000D03*
X179390000Y-94000000D03*
X179390000Y-88920000D03*
X179390000Y-83840000D03*
X179390000Y-78760000D03*
X179390000Y-73680000D03*
X182700000Y-111780000D03*
X182700000Y-106700000D03*
X182700000Y-101620000D03*
X182700000Y-96540000D03*
X182700000Y-91460000D03*
X182700000Y-86380000D03*
X182700000Y-81300000D03*
X182700000Y-76220000D03*
G04 #@! TD*
G04 #@! TO.C,J3*
X147697000Y-114300000D03*
X147697000Y-109220000D03*
X147697000Y-104140000D03*
X147697000Y-99060000D03*
X147697000Y-93980000D03*
X147697000Y-88900000D03*
X147697000Y-83820000D03*
X147697000Y-78740000D03*
X147697000Y-73660000D03*
X151007000Y-111760000D03*
X151007000Y-106680000D03*
X151007000Y-101600000D03*
X151007000Y-96520000D03*
X151007000Y-91440000D03*
X151007000Y-86360000D03*
X151007000Y-81280000D03*
X151007000Y-76200000D03*
G04 #@! TD*
G04 #@! TO.C,J1*
X174505000Y-76220000D03*
X174505000Y-81300000D03*
X174505000Y-86380000D03*
X174505000Y-91460000D03*
X174505000Y-96540000D03*
X174505000Y-101620000D03*
X174505000Y-106700000D03*
X174505000Y-111780000D03*
X171195000Y-73680000D03*
X171195000Y-78760000D03*
X171195000Y-83840000D03*
X171195000Y-88920000D03*
X171195000Y-94000000D03*
X171195000Y-99080000D03*
X171195000Y-104160000D03*
X171195000Y-109240000D03*
X171195000Y-114320000D03*
G04 #@! TD*
G04 #@! TO.C,J2*
X159305000Y-76220000D03*
X159305000Y-81300000D03*
X159305000Y-86380000D03*
X159305000Y-91460000D03*
X159305000Y-96540000D03*
X159305000Y-101620000D03*
X159305000Y-106700000D03*
X159305000Y-111780000D03*
X155995000Y-73680000D03*
X155995000Y-78760000D03*
X155995000Y-83840000D03*
X155995000Y-88920000D03*
X155995000Y-94000000D03*
X155995000Y-99080000D03*
X155995000Y-104160000D03*
X155995000Y-109240000D03*
X155995000Y-114320000D03*
G04 #@! TD*
M02*
