G04 #@! TF.GenerationSoftware,KiCad,Pcbnew,5.0.0-fee4fd1~66~ubuntu18.04.1*
G04 #@! TF.CreationDate,2018-09-21T23:05:29+02:00*
G04 #@! TF.ProjectId,Top,546F702E6B696361645F706362000000,rev?*
G04 #@! TF.SameCoordinates,Original*
G04 #@! TF.FileFunction,Copper,L1,Top,Signal*
G04 #@! TF.FilePolarity,Positive*
%FSLAX46Y46*%
G04 Gerber Fmt 4.6, Leading zero omitted, Abs format (unit mm)*
G04 Created by KiCad (PCBNEW 5.0.0-fee4fd1~66~ubuntu18.04.1) date Fri Sep 21 23:05:29 2018*
%MOMM*%
%LPD*%
G01*
G04 APERTURE LIST*
G04 #@! TA.AperFunction,NonConductor*
%ADD10C,0.300000*%
G04 #@! TD*
%ADD11C,0.200000*%
G04 #@! TA.AperFunction,NonConductor*
%ADD12C,0.200000*%
G04 #@! TD*
G04 #@! TA.AperFunction,NonConductor*
%ADD13C,0.250000*%
G04 #@! TD*
G04 #@! TA.AperFunction,Conductor*
%ADD14C,0.250000*%
G04 #@! TD*
G04 APERTURE END LIST*
D10*
X135437714Y-83228571D02*
X135437714Y-82228571D01*
X135437714Y-82514285D02*
X135509142Y-82371428D01*
X135580571Y-82300000D01*
X135723428Y-82228571D01*
X135866285Y-82228571D01*
X136580571Y-83228571D02*
X136437714Y-83157142D01*
X136366285Y-83085714D01*
X136294857Y-82942857D01*
X136294857Y-82514285D01*
X136366285Y-82371428D01*
X136437714Y-82300000D01*
X136580571Y-82228571D01*
X136794857Y-82228571D01*
X136937714Y-82300000D01*
X137009142Y-82371428D01*
X137080571Y-82514285D01*
X137080571Y-82942857D01*
X137009142Y-83085714D01*
X136937714Y-83157142D01*
X136794857Y-83228571D01*
X136580571Y-83228571D01*
X137509142Y-82228571D02*
X138080571Y-82228571D01*
X137723428Y-81728571D02*
X137723428Y-83014285D01*
X137794857Y-83157142D01*
X137937714Y-83228571D01*
X138080571Y-83228571D01*
D11*
X143001999Y-86360000D02*
G75*
G02X130302001Y-86360001I-6349999J-3810000D01*
G01*
D10*
X218011428Y-141561428D02*
X218082857Y-141490000D01*
X218225714Y-141418571D01*
X218582857Y-141418571D01*
X218725714Y-141490000D01*
X218797142Y-141561428D01*
X218868571Y-141704285D01*
X218868571Y-141847142D01*
X218797142Y-142061428D01*
X217940000Y-142918571D01*
X218868571Y-142918571D01*
X203628571Y-142918571D02*
X202771428Y-142918571D01*
X203200000Y-142918571D02*
X203200000Y-141418571D01*
X203057142Y-141632857D01*
X202914285Y-141775714D01*
X202771428Y-141847142D01*
D12*
X228290000Y-142240000D02*
G75*
G03X228290000Y-142240000I-3500000J0D01*
G01*
X200350000Y-142240000D02*
G75*
G03X200350000Y-142240000I-3500000J0D01*
G01*
D10*
X164989142Y-119828571D02*
X165989142Y-119828571D01*
X165346285Y-121328571D01*
X166560571Y-120757142D02*
X167703428Y-120757142D01*
X168632000Y-120471428D02*
X168489142Y-120400000D01*
X168417714Y-120328571D01*
X168346285Y-120185714D01*
X168346285Y-120114285D01*
X168417714Y-119971428D01*
X168489142Y-119900000D01*
X168632000Y-119828571D01*
X168917714Y-119828571D01*
X169060571Y-119900000D01*
X169132000Y-119971428D01*
X169203428Y-120114285D01*
X169203428Y-120185714D01*
X169132000Y-120328571D01*
X169060571Y-120400000D01*
X168917714Y-120471428D01*
X168632000Y-120471428D01*
X168489142Y-120542857D01*
X168417714Y-120614285D01*
X168346285Y-120757142D01*
X168346285Y-121042857D01*
X168417714Y-121185714D01*
X168489142Y-121257142D01*
X168632000Y-121328571D01*
X168917714Y-121328571D01*
X169060571Y-121257142D01*
X169132000Y-121185714D01*
X169203428Y-121042857D01*
X169203428Y-120757142D01*
X169132000Y-120614285D01*
X169060571Y-120542857D01*
X168917714Y-120471428D01*
X150606285Y-119828571D02*
X149892000Y-119828571D01*
X149820571Y-120542857D01*
X149892000Y-120471428D01*
X150034857Y-120400000D01*
X150392000Y-120400000D01*
X150534857Y-120471428D01*
X150606285Y-120542857D01*
X150677714Y-120685714D01*
X150677714Y-121042857D01*
X150606285Y-121185714D01*
X150534857Y-121257142D01*
X150392000Y-121328571D01*
X150034857Y-121328571D01*
X149892000Y-121257142D01*
X149820571Y-121185714D01*
X151320571Y-120757142D02*
X152463428Y-120757142D01*
X153820571Y-119828571D02*
X153534857Y-119828571D01*
X153392000Y-119900000D01*
X153320571Y-119971428D01*
X153177714Y-120185714D01*
X153106285Y-120471428D01*
X153106285Y-121042857D01*
X153177714Y-121185714D01*
X153249142Y-121257142D01*
X153392000Y-121328571D01*
X153677714Y-121328571D01*
X153820571Y-121257142D01*
X153892000Y-121185714D01*
X153963428Y-121042857D01*
X153963428Y-120685714D01*
X153892000Y-120542857D01*
X153820571Y-120471428D01*
X153677714Y-120400000D01*
X153392000Y-120400000D01*
X153249142Y-120471428D01*
X153177714Y-120542857D01*
X153106285Y-120685714D01*
X134509142Y-119828571D02*
X135437714Y-119828571D01*
X134937714Y-120400000D01*
X135152000Y-120400000D01*
X135294857Y-120471428D01*
X135366285Y-120542857D01*
X135437714Y-120685714D01*
X135437714Y-121042857D01*
X135366285Y-121185714D01*
X135294857Y-121257142D01*
X135152000Y-121328571D01*
X134723428Y-121328571D01*
X134580571Y-121257142D01*
X134509142Y-121185714D01*
X136080571Y-120757142D02*
X137223428Y-120757142D01*
X138580571Y-120328571D02*
X138580571Y-121328571D01*
X138223428Y-119757142D02*
X137866285Y-120828571D01*
X138794857Y-120828571D01*
X164489142Y-136568571D02*
X163632000Y-136568571D01*
X164060571Y-136568571D02*
X164060571Y-135068571D01*
X163917714Y-135282857D01*
X163774857Y-135425714D01*
X163632000Y-135497142D01*
X164989142Y-135068571D02*
X165917714Y-135068571D01*
X165417714Y-135640000D01*
X165632000Y-135640000D01*
X165774857Y-135711428D01*
X165846285Y-135782857D01*
X165917714Y-135925714D01*
X165917714Y-136282857D01*
X165846285Y-136425714D01*
X165774857Y-136497142D01*
X165632000Y-136568571D01*
X165203428Y-136568571D01*
X165060571Y-136497142D01*
X164989142Y-136425714D01*
X166560571Y-135997142D02*
X167703428Y-135997142D01*
X169203428Y-136568571D02*
X168346285Y-136568571D01*
X168774857Y-136568571D02*
X168774857Y-135068571D01*
X168632000Y-135282857D01*
X168489142Y-135425714D01*
X168346285Y-135497142D01*
X170489142Y-135568571D02*
X170489142Y-136568571D01*
X170132000Y-134997142D02*
X169774857Y-136068571D01*
X170703428Y-136068571D01*
X149249142Y-136568571D02*
X148392000Y-136568571D01*
X148820571Y-136568571D02*
X148820571Y-135068571D01*
X148677714Y-135282857D01*
X148534857Y-135425714D01*
X148392000Y-135497142D01*
X150677714Y-136568571D02*
X149820571Y-136568571D01*
X150249142Y-136568571D02*
X150249142Y-135068571D01*
X150106285Y-135282857D01*
X149963428Y-135425714D01*
X149820571Y-135497142D01*
X151320571Y-135997142D02*
X152463428Y-135997142D01*
X153963428Y-136568571D02*
X153106285Y-136568571D01*
X153534857Y-136568571D02*
X153534857Y-135068571D01*
X153392000Y-135282857D01*
X153249142Y-135425714D01*
X153106285Y-135497142D01*
X154534857Y-135211428D02*
X154606285Y-135140000D01*
X154749142Y-135068571D01*
X155106285Y-135068571D01*
X155249142Y-135140000D01*
X155320571Y-135211428D01*
X155392000Y-135354285D01*
X155392000Y-135497142D01*
X155320571Y-135711428D01*
X154463428Y-136568571D01*
X155392000Y-136568571D01*
X134009142Y-136568571D02*
X134294857Y-136568571D01*
X134437714Y-136497142D01*
X134509142Y-136425714D01*
X134652000Y-136211428D01*
X134723428Y-135925714D01*
X134723428Y-135354285D01*
X134652000Y-135211428D01*
X134580571Y-135140000D01*
X134437714Y-135068571D01*
X134152000Y-135068571D01*
X134009142Y-135140000D01*
X133937714Y-135211428D01*
X133866285Y-135354285D01*
X133866285Y-135711428D01*
X133937714Y-135854285D01*
X134009142Y-135925714D01*
X134152000Y-135997142D01*
X134437714Y-135997142D01*
X134580571Y-135925714D01*
X134652000Y-135854285D01*
X134723428Y-135711428D01*
X135366285Y-135997142D02*
X136509142Y-135997142D01*
X138009142Y-136568571D02*
X137152000Y-136568571D01*
X137580571Y-136568571D02*
X137580571Y-135068571D01*
X137437714Y-135282857D01*
X137294857Y-135425714D01*
X137152000Y-135497142D01*
X138937714Y-135068571D02*
X139080571Y-135068571D01*
X139223428Y-135140000D01*
X139294857Y-135211428D01*
X139366285Y-135354285D01*
X139437714Y-135640000D01*
X139437714Y-135997142D01*
X139366285Y-136282857D01*
X139294857Y-136425714D01*
X139223428Y-136497142D01*
X139080571Y-136568571D01*
X138937714Y-136568571D01*
X138794857Y-136497142D01*
X138723428Y-136425714D01*
X138652000Y-136282857D01*
X138580571Y-135997142D01*
X138580571Y-135640000D01*
X138652000Y-135354285D01*
X138723428Y-135211428D01*
X138794857Y-135140000D01*
X138937714Y-135068571D01*
D12*
X102870000Y-81280000D02*
X102870000Y-146280000D01*
X105410000Y-146280000D02*
X105410000Y-81280000D01*
X118110000Y-81280000D02*
X118110000Y-146280000D01*
X120650000Y-81280000D02*
X120650000Y-146280000D01*
X99060000Y-73660000D02*
X124460000Y-73660000D01*
X99060000Y-76200000D02*
X99060000Y-73660000D01*
X124460000Y-76200000D02*
X99060000Y-76200000D01*
X124460000Y-73660000D02*
X124460000Y-76200000D01*
X142152000Y-90170000D02*
G75*
G03X142152000Y-90170000I-5500000J0D01*
G01*
X170632000Y-142240000D02*
G75*
G03X170632000Y-142240000I-3500000J0D01*
G01*
X170632000Y-127000000D02*
G75*
G03X170632000Y-127000000I-3500000J0D01*
G01*
X155392000Y-127000000D02*
G75*
G03X155392000Y-127000000I-3500000J0D01*
G01*
X155392000Y-142240000D02*
G75*
G03X155392000Y-142240000I-3500000J0D01*
G01*
X140152000Y-142240000D02*
G75*
G03X140152000Y-142240000I-3500000J0D01*
G01*
X140152000Y-127000000D02*
G75*
G03X140152000Y-127000000I-3500000J0D01*
G01*
X102870000Y-81280000D02*
X105410000Y-81280000D01*
X120650000Y-81280000D02*
X118110000Y-81280000D01*
X105410000Y-146280000D02*
X102870000Y-146280000D01*
X118110000Y-146280000D02*
X120650000Y-146280000D01*
D13*
X198197142Y-151356142D02*
X198411428Y-151427571D01*
X198768571Y-151427571D01*
X198911428Y-151356142D01*
X198982857Y-151284714D01*
X199054285Y-151141857D01*
X199054285Y-150999000D01*
X198982857Y-150856142D01*
X198911428Y-150784714D01*
X198768571Y-150713285D01*
X198482857Y-150641857D01*
X198340000Y-150570428D01*
X198268571Y-150499000D01*
X198197142Y-150356142D01*
X198197142Y-150213285D01*
X198268571Y-150070428D01*
X198340000Y-149999000D01*
X198482857Y-149927571D01*
X198840000Y-149927571D01*
X199054285Y-149999000D01*
X199697142Y-150427571D02*
X199697142Y-151927571D01*
X199697142Y-150499000D02*
X199840000Y-150427571D01*
X200125714Y-150427571D01*
X200268571Y-150499000D01*
X200340000Y-150570428D01*
X200411428Y-150713285D01*
X200411428Y-151141857D01*
X200340000Y-151284714D01*
X200268571Y-151356142D01*
X200125714Y-151427571D01*
X199840000Y-151427571D01*
X199697142Y-151356142D01*
X201697142Y-151427571D02*
X201697142Y-150641857D01*
X201625714Y-150499000D01*
X201482857Y-150427571D01*
X201197142Y-150427571D01*
X201054285Y-150499000D01*
X201697142Y-151356142D02*
X201554285Y-151427571D01*
X201197142Y-151427571D01*
X201054285Y-151356142D01*
X200982857Y-151213285D01*
X200982857Y-151070428D01*
X201054285Y-150927571D01*
X201197142Y-150856142D01*
X201554285Y-150856142D01*
X201697142Y-150784714D01*
X202411428Y-151427571D02*
X202411428Y-150427571D01*
X202411428Y-150713285D02*
X202482857Y-150570428D01*
X202554285Y-150499000D01*
X202697142Y-150427571D01*
X202840000Y-150427571D01*
X203197142Y-150427571D02*
X203554285Y-151427571D01*
X203911428Y-150427571D01*
X204482857Y-151427571D02*
X204482857Y-150427571D01*
X204482857Y-149927571D02*
X204411428Y-149999000D01*
X204482857Y-150070428D01*
X204554285Y-149999000D01*
X204482857Y-149927571D01*
X204482857Y-150070428D01*
X205768571Y-151356142D02*
X205625714Y-151427571D01*
X205340000Y-151427571D01*
X205197142Y-151356142D01*
X205125714Y-151213285D01*
X205125714Y-150641857D01*
X205197142Y-150499000D01*
X205340000Y-150427571D01*
X205625714Y-150427571D01*
X205768571Y-150499000D01*
X205840000Y-150641857D01*
X205840000Y-150784714D01*
X205125714Y-150927571D01*
X206482857Y-151427571D02*
X206482857Y-150427571D01*
X206482857Y-150713285D02*
X206554285Y-150570428D01*
X206625714Y-150499000D01*
X206768571Y-150427571D01*
X206911428Y-150427571D01*
X207625714Y-151427571D02*
X207482857Y-151356142D01*
X207411428Y-151284714D01*
X207340000Y-151141857D01*
X207340000Y-150713285D01*
X207411428Y-150570428D01*
X207482857Y-150499000D01*
X207625714Y-150427571D01*
X207840000Y-150427571D01*
X207982857Y-150499000D01*
X208054285Y-150570428D01*
X208125714Y-150713285D01*
X208125714Y-151141857D01*
X208054285Y-151284714D01*
X207982857Y-151356142D01*
X207840000Y-151427571D01*
X207625714Y-151427571D01*
X209911428Y-151427571D02*
X209911428Y-149927571D01*
X210482857Y-149927571D01*
X210625714Y-149999000D01*
X210697142Y-150070428D01*
X210768571Y-150213285D01*
X210768571Y-150427571D01*
X210697142Y-150570428D01*
X210625714Y-150641857D01*
X210482857Y-150713285D01*
X209911428Y-150713285D01*
X211411428Y-151427571D02*
X211411428Y-149927571D01*
X211411428Y-150641857D02*
X212268571Y-150641857D01*
X212268571Y-151427571D02*
X212268571Y-149927571D01*
X213268571Y-149927571D02*
X213554285Y-149927571D01*
X213697142Y-149999000D01*
X213840000Y-150141857D01*
X213911428Y-150427571D01*
X213911428Y-150927571D01*
X213840000Y-151213285D01*
X213697142Y-151356142D01*
X213554285Y-151427571D01*
X213268571Y-151427571D01*
X213125714Y-151356142D01*
X212982857Y-151213285D01*
X212911428Y-150927571D01*
X212911428Y-150427571D01*
X212982857Y-150141857D01*
X213125714Y-149999000D01*
X213268571Y-149927571D01*
X214340000Y-149927571D02*
X215197142Y-149927571D01*
X214768571Y-151427571D02*
X214768571Y-149927571D01*
X215625714Y-150999000D02*
X216340000Y-150999000D01*
X215482857Y-151427571D02*
X215982857Y-149927571D01*
X216482857Y-151427571D01*
X216911428Y-151356142D02*
X217125714Y-151427571D01*
X217482857Y-151427571D01*
X217625714Y-151356142D01*
X217697142Y-151284714D01*
X217768571Y-151141857D01*
X217768571Y-150999000D01*
X217697142Y-150856142D01*
X217625714Y-150784714D01*
X217482857Y-150713285D01*
X217197142Y-150641857D01*
X217054285Y-150570428D01*
X216982857Y-150499000D01*
X216911428Y-150356142D01*
X216911428Y-150213285D01*
X216982857Y-150070428D01*
X217054285Y-149999000D01*
X217197142Y-149927571D01*
X217554285Y-149927571D01*
X217768571Y-149999000D01*
X219554285Y-151427571D02*
X219554285Y-149927571D01*
X220054285Y-150999000D01*
X220554285Y-149927571D01*
X220554285Y-151427571D01*
X221911428Y-151427571D02*
X221911428Y-150641857D01*
X221840000Y-150499000D01*
X221697142Y-150427571D01*
X221411428Y-150427571D01*
X221268571Y-150499000D01*
X221911428Y-151356142D02*
X221768571Y-151427571D01*
X221411428Y-151427571D01*
X221268571Y-151356142D01*
X221197142Y-151213285D01*
X221197142Y-151070428D01*
X221268571Y-150927571D01*
X221411428Y-150856142D01*
X221768571Y-150856142D01*
X221911428Y-150784714D01*
X222625714Y-151427571D02*
X222625714Y-150427571D01*
X222625714Y-150713285D02*
X222697142Y-150570428D01*
X222768571Y-150499000D01*
X222911428Y-150427571D01*
X223054285Y-150427571D01*
X223554285Y-151427571D02*
X223554285Y-149927571D01*
X223697142Y-150856142D02*
X224125714Y-151427571D01*
X224125714Y-150427571D02*
X223554285Y-150999000D01*
X225911428Y-151427571D02*
X225911428Y-149927571D01*
D12*
X232820000Y-97790000D02*
G75*
G03X232820000Y-97790000I-22000000J0D01*
G01*
X88900000Y-64300000D02*
X88900000Y-155500000D01*
X245000000Y-64262000D02*
X88900000Y-64262000D01*
X245000000Y-155500000D02*
X245000000Y-64300000D01*
X88900000Y-155500000D02*
X245000000Y-155500000D01*
D14*
G04 #@! TO.N,*
X101600000Y-72390000D02*
X101600000Y-71120000D01*
X102870000Y-72390000D02*
X102870000Y-71120000D01*
X104140000Y-72390000D02*
X104140000Y-71120000D01*
X105410000Y-72390000D02*
X105410000Y-71120000D01*
X106680000Y-72390000D02*
X106680000Y-71120000D01*
X107950000Y-72390000D02*
X107950000Y-71120000D01*
X109220000Y-72390000D02*
X109220000Y-71120000D01*
X110490000Y-72390000D02*
X110490000Y-71120000D01*
X113030000Y-72390000D02*
X113030000Y-71120000D01*
X114300000Y-72390000D02*
X114300000Y-71120000D01*
X115570000Y-72390000D02*
X115570000Y-71120000D01*
X116840000Y-72390000D02*
X116840000Y-71120000D01*
X118110000Y-72390000D02*
X118110000Y-71120000D01*
X119380000Y-72390000D02*
X119380000Y-71120000D01*
X120650000Y-72390000D02*
X120650000Y-71120000D01*
X121920000Y-72390000D02*
X121920000Y-71120000D01*
X101600000Y-82550000D02*
X97790000Y-82550000D01*
X101600000Y-146050000D02*
X97790000Y-146050000D01*
X101600000Y-114300000D02*
X97790000Y-114300000D01*
X156972000Y-127000000D02*
X162052000Y-127000000D01*
X162052000Y-142240000D02*
X156972000Y-142240000D01*
X146812000Y-142240000D02*
X141732000Y-142240000D01*
X228981000Y-150749000D02*
X235331000Y-150749000D01*
X195961000Y-150749000D02*
X99441000Y-150749000D01*
X181864000Y-97790000D02*
X179324000Y-97790000D01*
X236220000Y-97790000D02*
X238760000Y-97790000D01*
X233680000Y-68834000D02*
X97790000Y-68834000D01*
X123190000Y-72390000D02*
X123190000Y-69850000D01*
X111760000Y-69850000D02*
X111760000Y-72390000D01*
X100330000Y-72390000D02*
X100330000Y-69850000D01*
X240157000Y-71120000D02*
X240157000Y-147320000D01*
X93599000Y-147320000D02*
X93599000Y-71120000D01*
X101600000Y-83820000D02*
X100330000Y-83820000D01*
X101600000Y-86360000D02*
X100330000Y-86360000D01*
X101600000Y-93980000D02*
X100330000Y-93980000D01*
X101600000Y-90170000D02*
X100330000Y-90170000D01*
X101600000Y-92710000D02*
X100330000Y-92710000D01*
X100330000Y-85090000D02*
X101600000Y-85090000D01*
X101600000Y-88900000D02*
X100330000Y-88900000D01*
X100330000Y-87630000D02*
X101600000Y-87630000D01*
X101600000Y-91440000D02*
X100330000Y-91440000D01*
X101600000Y-96520000D02*
X100330000Y-96520000D01*
X101600000Y-104140000D02*
X100330000Y-104140000D01*
X101600000Y-100330000D02*
X100330000Y-100330000D01*
X101600000Y-102870000D02*
X100330000Y-102870000D01*
X100330000Y-95250000D02*
X101600000Y-95250000D01*
X101600000Y-99060000D02*
X100330000Y-99060000D01*
X100330000Y-97790000D02*
X101600000Y-97790000D01*
X101600000Y-101600000D02*
X100330000Y-101600000D01*
X101600000Y-106680000D02*
X100330000Y-106680000D01*
X101600000Y-110490000D02*
X100330000Y-110490000D01*
X101600000Y-113030000D02*
X100330000Y-113030000D01*
X100330000Y-105410000D02*
X101600000Y-105410000D01*
X101600000Y-109220000D02*
X100330000Y-109220000D01*
X100330000Y-107950000D02*
X101600000Y-107950000D01*
X101600000Y-111760000D02*
X100330000Y-111760000D01*
X101600000Y-116840000D02*
X100330000Y-116840000D01*
X101600000Y-124460000D02*
X100330000Y-124460000D01*
X101600000Y-120650000D02*
X100330000Y-120650000D01*
X101600000Y-123190000D02*
X100330000Y-123190000D01*
X100330000Y-115570000D02*
X101600000Y-115570000D01*
X101600000Y-119380000D02*
X100330000Y-119380000D01*
X100330000Y-118110000D02*
X101600000Y-118110000D01*
X101600000Y-121920000D02*
X100330000Y-121920000D01*
X101600000Y-127000000D02*
X100330000Y-127000000D01*
X101600000Y-134620000D02*
X100330000Y-134620000D01*
X101600000Y-130810000D02*
X100330000Y-130810000D01*
X101600000Y-133350000D02*
X100330000Y-133350000D01*
X100330000Y-125730000D02*
X101600000Y-125730000D01*
X101600000Y-129540000D02*
X100330000Y-129540000D01*
X100330000Y-128270000D02*
X101600000Y-128270000D01*
X101600000Y-132080000D02*
X100330000Y-132080000D01*
X101600000Y-137160000D02*
X100330000Y-137160000D01*
X101600000Y-144780000D02*
X100330000Y-144780000D01*
X101600000Y-140970000D02*
X100330000Y-140970000D01*
X101600000Y-143510000D02*
X100330000Y-143510000D01*
X100330000Y-135890000D02*
X101600000Y-135890000D01*
X101600000Y-139700000D02*
X100330000Y-139700000D01*
X100330000Y-138430000D02*
X101600000Y-138430000D01*
X101600000Y-142240000D02*
X100330000Y-142240000D01*
X121920000Y-83820000D02*
X123190000Y-83820000D01*
X121920000Y-106680000D02*
X123190000Y-106680000D01*
X121920000Y-139700000D02*
X123190000Y-139700000D01*
X123190000Y-120650000D02*
X121920000Y-120650000D01*
X121920000Y-99060000D02*
X123190000Y-99060000D01*
X121920000Y-86360000D02*
X123190000Y-86360000D01*
X121920000Y-119380000D02*
X123190000Y-119380000D01*
X121920000Y-85090000D02*
X123190000Y-85090000D01*
X121920000Y-125730000D02*
X123190000Y-125730000D01*
X121920000Y-132080000D02*
X123190000Y-132080000D01*
X123190000Y-133350000D02*
X121920000Y-133350000D01*
X121920000Y-142240000D02*
X123190000Y-142240000D01*
X121920000Y-129540000D02*
X123190000Y-129540000D01*
X121920000Y-109220000D02*
X123190000Y-109220000D01*
X121920000Y-107950000D02*
X123190000Y-107950000D01*
X123190000Y-90170000D02*
X121920000Y-90170000D01*
X123190000Y-140970000D02*
X121920000Y-140970000D01*
X121920000Y-87630000D02*
X123190000Y-87630000D01*
X121920000Y-101600000D02*
X123190000Y-101600000D01*
X121920000Y-134620000D02*
X123190000Y-134620000D01*
X123190000Y-113030000D02*
X121920000Y-113030000D01*
X121920000Y-144780000D02*
X123190000Y-144780000D01*
X121920000Y-88900000D02*
X123190000Y-88900000D01*
X121920000Y-124460000D02*
X123190000Y-124460000D01*
X123190000Y-92710000D02*
X121920000Y-92710000D01*
X123190000Y-130810000D02*
X121920000Y-130810000D01*
X121920000Y-104140000D02*
X123190000Y-104140000D01*
X121920000Y-118110000D02*
X123190000Y-118110000D01*
X121920000Y-95250000D02*
X123190000Y-95250000D01*
X121920000Y-105410000D02*
X123190000Y-105410000D01*
X123190000Y-100330000D02*
X121920000Y-100330000D01*
X121920000Y-91440000D02*
X123190000Y-91440000D01*
X121920000Y-97790000D02*
X123190000Y-97790000D01*
X121920000Y-121920000D02*
X123190000Y-121920000D01*
X121920000Y-137160000D02*
X123190000Y-137160000D01*
X121920000Y-128270000D02*
X123190000Y-128270000D01*
X123190000Y-102870000D02*
X121920000Y-102870000D01*
X121920000Y-116840000D02*
X123190000Y-116840000D01*
X123190000Y-110490000D02*
X121920000Y-110490000D01*
X123190000Y-143510000D02*
X121920000Y-143510000D01*
X121920000Y-111760000D02*
X123190000Y-111760000D01*
X121920000Y-93980000D02*
X123190000Y-93980000D01*
X123190000Y-123190000D02*
X121920000Y-123190000D01*
X121920000Y-138430000D02*
X123190000Y-138430000D01*
X121920000Y-135890000D02*
X123190000Y-135890000D01*
X121920000Y-146050000D02*
X125730000Y-146050000D01*
X121920000Y-82550000D02*
X125730000Y-82550000D01*
X121920000Y-114300000D02*
X125730000Y-114300000D01*
X121920000Y-96520000D02*
X123190000Y-96520000D01*
X121920000Y-127000000D02*
X123190000Y-127000000D01*
X121920000Y-115570000D02*
X123190000Y-115570000D01*
X210820000Y-72390000D02*
X210820000Y-69850000D01*
X136652000Y-118491000D02*
X136652000Y-97800000D01*
X144272000Y-127000000D02*
X146812000Y-127000000D01*
X141732000Y-127000000D02*
X144272000Y-127000000D01*
X228600000Y-134620000D02*
X238760000Y-134620000D01*
X210820000Y-123190000D02*
X210820000Y-142240000D01*
G04 #@! TD*
M02*
